<?xml version="1.0" encoding="UTF-8"?>
<svg id="Layer_2" data-name="Layer 2" xmlns="http://www.w3.org/2000/svg" viewBox="0 0 581.06 526.06">
  <defs>
    <style>
      .cls-1 {
        fill: #ee302f;
      }
    </style>
  </defs>
  <g id="Layer_2-2" data-name="Layer 2">
    <g>
      <path class="cls-1" d="M364.35,401.63c-1.08,24.25-16.43,30.82-21.96,52.21-3.44,11.91-1.46,19.6-5.49,27.51-4,7.93-8.5,9.21-12.52,17.3-5.79,9.9-15.01,27.38-30.09,27.38-1.28,.04-6.24,.04-7.52,0-15.15,0-24.29-17.48-30.09-27.38-4.03-8.09-8.52-9.37-12.52-17.3-4.03-7.91-2.05-15.59-5.49-27.51-5.53-21.39-20.88-27.95-21.96-52.21-1.06-24.25,13.26-36.88,26.96-46.25,12.08-8.27,30.15-11.41,46.86-10.75,16.71-.65,34.78,2.48,46.86,10.75,13.7,9.37,28.02,22,26.96,46.25Z"/>
      <g>
        <path class="cls-1" d="M315.45,353.5c1.99,7.39,1.3,12.28,0,23.77,48.94-19.4,80.38-48.31,121.28-81.36,42.43-34.28,97.15-29.9,116.83-82.75-48.46,47.67-39.28,23.7-63.09,25.59,42.03-36.78,108.24-124.45,86.22-179.92-3.63,40.36-13.51,60.19-29.7,76.6,29.15-44.13-22.78-120.96-60.49-135.42,66.3,71.5,52.08,136.59-.73,211.6,20.36-44.54,37.6-100.73,7.44-144.04,8.21,38.47,3.17,82.31-16.27,114.95,11.96-30.37,2.01-63.62-6.46-85.7-1.07,32.88-6.44,97.64-16.62,125.79-15.34,42.39-40.33,61.93-71.51,92.28,23.16-26.65,61.05-95.06,10.51-114.59,36.46,51.81-46.46,117-71.6,148.2"/>
        <path class="cls-1" d="M265.6,353.5c-1.99,7.39-1.3,12.28,0,23.77-48.94-19.4-80.38-48.31-121.28-81.36-42.43-34.28-97.15-29.9-116.82-82.75,48.46,47.67,39.27,23.7,63.09,25.59C48.57,201.97-17.64,114.3,4.37,58.83c3.63,40.36,13.52,60.19,29.7,76.6C4.92,91.29,56.85,14.47,94.55,0c-66.31,71.5-52.08,136.59,.73,211.6-20.36-44.54-37.59-100.73-7.44-144.04-8.21,38.47-3.17,82.31,16.26,114.95-11.96-30.37-2.01-63.62,6.46-85.7,1.06,32.88,6.43,97.64,16.62,125.79,15.33,42.39,40.33,61.93,71.51,92.28-23.16-26.65-61.06-95.06-10.51-114.59-36.46,51.81,46.46,117,71.61,148.2"/>
      </g>
    </g>
  </g>
</svg>